# xmcd
#
# Track frame offsets:
#	150
#	29424
#	57277
#	86888
#	115598
#	153308
#	174011
#	202199
#	221780
#	255164
#
# Disc length: 3796 seconds
#
# Revision: 1
# Processed by: cddbd v1.5.2PL0 Copyright (c) Steve Scherf et al.
# Submitted via: audiograbber 1.83.01
#
DISCID=810ed20a
DTITLE=Kuldip Ghuman - Heera Maavaa De
DYEAR=2007
DGENRE=Dharmik
TTITLE0=Bachiyaan De Dukh
TTITLE1=Tote Jigraan De
TTITLE2=Sadi Vi Umar Daatiya
TTITLE3=Heere Maavaa De
TTITLE4=Vadde Vadde Laarey
TTITLE5=Paigey Hathi Toorne
TTITLE6=Tasveer Jvanaan Di
TTITLE7=Judaa Naa Laal Karin
TTITLE8=Putar Da Bhaar
TTITLE9=Jag Aisi Ik Thaan
EXTD=SIKHROOTS.COM
EXTT0=
EXTT1=
EXTT2=
EXTT3=
EXTT4=
EXTT5=
EXTT6=
EXTT7=
EXTT8=
EXTT9=
PLAYORDER=
